<svg width="193" height="64" viewBox="0 0 193 64" fill="none" xmlns="http://www.w3.org/2000/svg">
<g clip-path="url(#clip0)">
<path d="M186.989 38.8053L192.344 42.3562C190.606 44.9024 186.45 49.2712 179.264 49.2712C170.341 49.2712 163.695 42.403 163.695 33.6659C163.695 24.3685 170.411 18.061 178.512 18.061C186.661 18.061 190.653 24.5084 191.944 27.9892L192.649 29.7648L171.656 38.4082C173.253 41.5387 175.742 43.1272 179.264 43.1272C182.786 43.1272 185.228 41.3984 186.989 38.8053ZM170.529 33.1758L184.547 27.382C183.772 25.4433 181.472 24.0652 178.724 24.0652C175.225 24.0652 170.364 27.1488 170.529 33.1758Z" fill="#FF302F"/>
<path d="M153.574 2.15223H160.337V47.846H153.574V2.15186V2.15223Z" fill="#20B15A"/>
<path d="M142.913 19.2755H149.441V47.0281C149.441 58.5447 142.607 63.287 134.529 63.287C126.921 63.287 122.342 58.1945 120.628 54.0597L126.616 51.5832C127.696 54.1295 130.302 57.1433 134.529 57.1433C139.719 57.1433 142.913 53.9427 142.913 47.9626V45.7201H142.678C141.128 47.5887 138.169 49.2706 134.412 49.2706C126.569 49.2706 119.383 42.4726 119.383 33.7126C119.383 24.9053 126.569 18.0376 134.412 18.0376C138.146 18.0376 141.128 19.6962 142.678 21.5183H142.913V19.2758V19.2755ZM143.382 33.7126C143.382 28.1993 139.695 24.1812 134.999 24.1812C130.255 24.1812 126.263 28.1993 126.263 33.7126C126.263 39.1553 130.255 43.1033 134.999 43.1033C139.696 43.127 143.382 39.1553 143.382 33.7126H143.382Z" fill="#3686F7"/>
<path d="M82.259 33.5959C82.259 42.5899 75.2145 49.2008 66.5729 49.2008C57.9316 49.2008 50.8867 42.5666 50.8867 33.5959C50.8867 24.5554 57.9316 17.9678 66.5729 17.9678C75.2145 17.9678 82.259 24.5554 82.259 33.5959ZM75.4022 33.5959C75.4022 27.9896 71.3161 24.1346 66.5729 24.1346C61.8297 24.1346 57.7435 27.9896 57.7435 33.5959C57.7435 39.1556 61.8297 43.0571 66.5729 43.0571C71.3164 43.0571 75.4022 39.1556 75.4022 33.5959Z" fill="#FF302F"/>
<path d="M116.517 33.6659C116.517 42.6599 109.472 49.2708 100.831 49.2708C92.189 49.2708 85.1445 42.6595 85.1445 33.6659C85.1445 24.6254 92.189 18.061 100.831 18.061C109.472 18.061 116.517 24.6022 116.517 33.6659ZM109.636 33.6659C109.636 28.0597 105.551 24.2047 100.807 24.2047C96.0637 24.2047 91.9776 28.0597 91.9776 33.6659C91.9776 39.2257 96.0637 43.1272 100.807 43.1272C105.574 43.1272 109.636 39.2024 109.636 33.6659Z" fill="#FFBA40"/>
<path d="M25.1021 42.4262C15.2629 42.4262 7.56097 34.5302 7.56097 24.7419C7.56097 14.954 15.2629 7.05803 25.1021 7.05803C30.4092 7.05803 34.2836 9.13703 37.1484 11.8003L41.8686 7.1049C37.8767 3.29715 32.5462 0.399902 25.1021 0.399902C11.6234 0.400277 0.28125 11.3334 0.28125 24.7419C0.28125 38.1512 11.6234 49.0839 25.1021 49.0839C32.3818 49.0839 37.8767 46.7012 42.1739 42.2627C46.5884 37.8707 47.9504 31.7034 47.9504 26.7043C47.9504 25.139 47.7627 23.5273 47.5512 22.3359H25.1021V28.8302H41.0936C40.6239 32.8952 39.3325 35.675 37.4304 37.5669C35.1291 39.8799 31.4896 42.4262 25.1021 42.4262Z" fill="#3686F7"/>
</g>
<defs>
<clipPath id="clip0">
<rect width="193" height="63" fill="white" transform="translate(0 0.303223)"/>
</clipPath>
</defs>
</svg>
